<svg width="24" height="24" viewBox="0 0 24 24" fill="none" xmlns="http://www.w3.org/2000/svg">
<g id="sns_Default/discord">
<path id="Vector" d="M19.6419 5.4C18.1975 4.73333 16.6641 4.26667 15.0975 4C14.8863 4.37778 14.6863 4.77778 14.5197 5.17778C12.853 4.93333 11.153 4.93333 9.48634 5.17778C9.33078 4.81111 9.09745 4.34444 8.90856 4C7.33078 4.25556 5.79745 4.73333 4.34189 5.4C1.78634 9.03333 0.630783 13.4667 1.09745 17.8778C2.77523 19.1111 4.65301 20.0556 6.65301 20.6667C7.10856 20.0667 7.50856 19.4222 7.84189 18.7444C7.19745 18.5 6.56412 18.2 5.97523 17.8444L6.43078 17.4889C9.95301 19.1556 14.0197 19.1556 17.5419 17.4889C17.6975 17.6111 17.8419 17.7333 18.0086 17.8444C17.4086 18.2 16.7752 18.5 16.1197 18.7444C16.4641 19.4222 16.8752 20.0667 17.3419 20.6667C19.3419 20.0556 21.2197 19.1111 22.8974 17.8778C23.3641 13.4667 22.2086 9.02222 19.6419 5.4ZM8.35301 15.4C7.19745 15.3333 6.30856 14.3444 6.37523 13.1889C6.29745 12.0333 7.17523 11.0444 8.31967 10.9667C8.31967 10.9667 8.34189 10.9667 8.35301 10.9667C9.49745 11.0222 10.3863 11.9889 10.3308 13.1333C10.3308 13.1556 10.3308 13.1667 10.3308 13.1889C10.3752 14.3333 9.49745 15.3 8.35301 15.3667V15.4111V15.4ZM15.653 15.4C14.4974 15.3333 13.6086 14.3333 13.6752 13.1778C13.6086 12.0222 14.4863 11.0222 15.6419 10.9556C16.7863 11.0111 17.6752 11.9778 17.6197 13.1222C17.6197 13.1444 17.6197 13.1556 17.6197 13.1778C17.6752 14.3222 16.7863 15.3 15.6419 15.3556V15.4H15.653Z" fill="#111111"/>
</g>
</svg>
