<svg width="24" height="24" viewBox="0 0 24 24" fill="none" xmlns="http://www.w3.org/2000/svg">
<path d="M7.0239 9H3.26953V21.001H7.0239V9Z" fill="white"/>
<path d="M20.5512 14.5657V21.0001H16.7968V15.0011C16.7968 13.4235 16.6074 12.1457 14.7698 12.1457C12.9322 12.1457 12.7456 13.4264 12.7456 15.0011V21.0001H8.99121V8.99915H12.7456V10.7152C13.311 9.46844 14.3796 8.67969 16.3558 8.67969C16.5084 8.67969 16.6554 8.68534 16.7968 8.69382C20.1865 8.89455 20.5512 11.4446 20.5512 14.5657Z" fill="white"/>
<path d="M7.3 5.14859C7.3 3.96121 6.33596 3 5.14859 3C3.96121 3 3 3.96121 3 5.14859C3 6.33596 3.96121 7.29717 5.14859 7.29717C6.33596 7.29717 7.29717 6.33596 7.29717 5.14859H7.3Z" fill="white"/>
</svg>
