<svg width="24" height="24" viewBox="0 0 24 24" fill="none" xmlns="http://www.w3.org/2000/svg">
<g id="sns_Default/notion">
<path id="Vector" d="M5.40761 5.61161C6.04835 6.13214 6.28871 6.09242 7.49184 6.01215L18.8347 5.33107C19.0751 5.33107 18.8751 5.09108 18.795 5.05119L16.9111 3.68936C16.5502 3.40914 16.0692 3.08821 15.1476 3.16849L4.1644 3.96957C3.76386 4.00929 3.68384 4.20955 3.84338 4.37009L5.40761 5.61161ZM6.08862 8.25502V20.1896C6.08862 20.831 6.40914 21.071 7.13056 21.0313L19.5962 20.31C20.318 20.2703 20.3984 19.829 20.3984 19.3081V7.4536C20.3984 6.9334 20.1984 6.65286 19.7565 6.6929L6.72969 7.4536C6.24896 7.49399 6.08862 7.73446 6.08862 8.25502ZM18.3947 8.89522C18.4747 9.25604 18.3947 9.61652 18.0332 9.65706L17.4326 9.77673V18.5875C16.9111 18.8679 16.4303 19.0281 16.0295 19.0281C15.388 19.0281 15.2273 18.8277 14.7467 18.2273L10.818 12.0596V18.0271L12.0612 18.3075C12.0612 18.3075 12.0612 19.0281 11.0582 19.0281L8.2931 19.1885C8.21278 19.0281 8.2931 18.628 8.57357 18.5477L9.29513 18.3478V10.4578L8.29327 10.3775C8.21293 10.0167 8.41304 9.49652 8.9746 9.45613L11.9409 9.25619L16.0295 15.5041V9.97699L14.9871 9.85734C14.9071 9.41626 15.2273 9.09597 15.6282 9.05625L18.3947 8.89522ZM3.24222 2.88827L14.6665 2.04698C16.0695 1.92665 16.4304 2.00725 17.3122 2.64778L20.9589 5.21091C21.5607 5.65167 21.7612 5.77167 21.7612 6.25215V20.31C21.7612 21.1909 21.4403 21.712 20.3182 21.7917L7.0512 22.5929C6.20888 22.6331 5.80799 22.513 5.36687 21.9519L2.68132 18.4676C2.20011 17.8263 2 17.3464 2 16.785V4.28951C2 3.56903 2.32102 2.96806 3.24222 2.88827Z" fill="#111111"/>
</g>
</svg>
